# xmcd CD Database Entry
#
# Track frame offsets:
# 150
# 24654
# 44925
# 68196
# 89579
# 116825
# 135600
# 177530
#
# Disc length: 2646 seconds
#
# Revision: 1
# Processed by: cddbd v1.4PL0 Copyright (c) Steve Scherf et al.
# Submitted via: tcd 2.0b
#
DISCID=7c0a5408
DTITLE=Parkside Jones - Mind the Gap
DYEAR=1900
DGENRE=
TTITLE0=Sixty-One Days
TTITLE1=Head First
TTITLE2=Main Ground
TTITLE3=Wait Up
TTITLE4=Everyday Experience
TTITLE5=Love Monkey 23
TTITLE6=Hang Your Head Down Low
TTITLE7=Mood
EXTD=
EXTT0=\n
EXTT1=
EXTT2=
EXTT3=
EXTT4=
EXTT5=
EXTT6=
EXTT7=
PLAYORDER=
